<svg xmlns="http://www.w3.org/2000/svg" id="Capa_1" data-name="Capa 1" viewBox="0 0 400 400"><defs><style>.cls-4{fill:#ffdf39}.cls-2{fill:#f5a118}.cls-6{fill:#010101}.cls-4{fill-rule:evenodd}.cls-5{fill:#fddd39}</style></defs><path fill="#ffdf39" d="m160.14 290.77-2.43-23.4-17.62-16.65-20.53-24.77-5.58-46.87 8.5-31.7 33.41-36.2 44.39-12.74 41.77 11.11 30.69 31.59 17.99 41.39-5.46 35.77-17.01 32.42-26.21 16.65v17.75l-5.95 13.97-63.2 2.42-12.76-10.74z"/><path d="M196 105.89s111.9 22 61.42 140.42l4.8 4.41 20.16-22.09 8.38-53.45-33.34-58.25-26.32-10.29-18.1-6.17Z" class="cls-2"/><path fill="#010101" fill-rule="evenodd" d="M200.24 93.3c49 .08 90.79 37.88 94.89 86.43 3.07 36.38-10.64 65.32-39.78 87a9.83 9.83 0 0 0-4.47 8.42c-.59 21.07-1.35 42.12-1.95 63.19-.33 11.52-2.74 15-13.72 19.13a6.14 6.14 0 0 0-2.81 2c-8.48 12.53-21.42 14-34.79 13.66-8.59-.2-17.17-2.08-23.54-8.3-4-3.88-7.74-7.56-12.71-10.32-5.55-3.09-6.66-9.05-6.9-15.06-.85-20.88-1.81-41.77-2.51-62.65a10 10 0 0 0-4.72-8.77c-32.59-23.3-47.29-55.18-40.67-94.63 6.85-40.79 32.12-66.32 72-77.28a54.35 54.35 0 0 1 8-1.5c4.55-.55 9.12-.89 13.68-1.32Zm31.92 194c3.26 0 4.56-1.27 4.6-4.51.08-5.27.77-10.54.6-15.79-.15-4.62 1.58-7.18 5.59-9.61A81.83 81.83 0 1 0 121.06 167c-8.78 34 4.39 69.77 34.15 88.49 8.51 5.36 11 10.89 10.79 20.23-.37 14-.86 11.52 12.13 11.88m57.22 14.4a7.08 7.08 0 0 0-1.76-.23c-21 4-41.92 8-62.85 12.13-4.85 1-2.86 5.16-2.75 8 .15 4 3.41 2.46 5.42 2.08q27.43-5.27 54.82-10.79c8.45-1.7 8.68-2.14 7.12-11.19Zm.26 20c.68-4-.67-5.59-5-4.71q-29.18 5.94-58.42 11.5c-5.16 1-4.1 4.62-3.81 7.86.37 4.11 3.37 2.89 5.78 2.42 18.82-3.66 37.61-7.42 56.45-11 3.63-.7 5.58-2.23 5-6.07Zm0-26.05c-.11-.6-.22-1.2-.32-1.81-1.93-.11-3.86-.32-5.79-.31q-27.53.06-55.05.2c-7.72 0-7.72 0-7.51 8s.36 8 8.23 6.46q27.7-5.51 55.43-11a50.59 50.59 0 0 0 4.97-1.57Zm-.73 35.87-64.91 12.8c.57 1.65.85 2 1.13 2 20.2 0 40.4 0 60.59-.17 1.09 0 2.95-1.85 3.08-3 .36-3.51.09-7.04.07-11.66Z"/><path d="M235.35 302c1.56 9.07 1.33 9.51-7.12 11.2q-27.39 5.49-54.82 10.79c-2 .38-5.27 1.95-5.42-2.08-.11-2.85-2.1-7 2.75-8 20.93-4.16 41.89-8.12 62.85-12.13a7.08 7.08 0 0 1 1.76.22ZM235.61 322c.58 3.87-1.37 5.4-5 6.09-18.84 3.56-37.63 7.32-56.45 11-2.41.47-5.41 1.69-5.78-2.42-.29-3.24-1.35-6.88 3.81-7.86q29.25-5.56 58.42-11.5c4.33-.93 5.68.62 5 4.69ZM235.57 295.92a50.59 50.59 0 0 1-5 1.53q-27.7 5.52-55.43 11c-7.87 1.57-8 1.49-8.23-6.46s-.21-7.93 7.51-8q27.53-.12 55.05-.2c1.93 0 3.86.2 5.79.31.09.62.2 1.22.31 1.82ZM234.84 331.79c0 4.62.29 8.15-.11 11.62-.13 1.14-2 3-3.08 3-20.19.2-40.39.18-60.59.17-.28 0-.56-.33-1.13-2Z" class="cls-4"/><path d="M112.31 74.07h14.51v40.31h-14.51z" class="cls-5" transform="rotate(-44.35 119.545 94.215)"/><path d="m110.61 78.91 24.06 24.61-6.16 6-24.06-24.59 6.16-6m.1-8.33-4.21 4.1-6.17 6-4.21 4.12 4.12 4.21 24.06 24.61 4.11 4.22 4.22-4.12 6.16-6 4.21-4.12-4.11-4.21-24.06-24.62-4.12-4.21Z"/><path d="M176.93 24.18h14.51V81.4h-14.51z" class="cls-5" transform="rotate(-5.68 184.1 52.781)"/><path d="M185.94 26.83 191 77.9l-8.58.85-5.08-51.07 8.58-.85m5.28-6.45-5.87.59-8.57.85-5.86.58.58 5.86 5.08 51.08.58 5.86 5.86-.58 8.58-.86 5.86-.58-.58-5.86-5.06-51.08-.58-5.86Z"/><path d="M233.61 70.16h47.57v14.51h-47.57z" class="cls-5" transform="rotate(-55.54 257.38 77.423)"/><path d="m265.63 57.8 7.11 4.87L249.15 97l-7.1-4.88 23.58-34.32m-1.52-8.19-3.33 4.85-23.59 34.37-3.33 4.86 4.85 3.31 7.11 4.88 4.86 3.33 3.33-4.86L277.6 66l3.33-4.86-4.86-3.33-7.07-4.87-4.86-3.33Z"/><path d="M178.9 235.53a15.59 15.59 0 0 1-9.73-3.21c-3 .76-10.46 1.9-16.77-3.52-5.28-4.52-7.43-10.63-6.58-18.68a15.15 15.15 0 0 1 5.78-10 15.45 15.45 0 0 1 8-3.39c0-2.47.44-6.22 2.73-8.92a9.53 9.53 0 0 1 7.51-3.27c3.78-.05 10.13 1.29 10.32 10.83a2.21 2.21 0 0 1-2.17 2.26 2.24 2.24 0 0 1-2.26-2.17c-.09-4.6-1.84-6.55-5.83-6.49a5.26 5.26 0 0 0-4.18 1.69c-1.93 2.27-1.79 6.51-1.58 8a2.23 2.23 0 0 1-.6 1.87 2.2 2.2 0 0 1-1.84.66 10.15 10.15 0 0 0-7.34 2.43 10.74 10.74 0 0 0-4.15 7c-.7 6.67.86 11.25 5.06 14.85 5.9 5.06 13.34 2.45 13.65 2.34a2.22 2.22 0 0 1 2.28.46 11.42 11.42 0 0 0 9.07 2.79c3.93-.38 7.68-2.3 9.57-4.91 4.67-6.45 4.08-15 4.08-15.09a.86.86 0 0 1 0-.16v-53.4a2.22 2.22 0 1 1 4.43 0v53.29c.07 1.1.48 10.48-4.91 17.93-2.64 3.65-7.52 6.22-12.74 6.72q-.91.09-1.8.09Z" class="cls-6"/><path d="M148 212.57a2.59 2.59 0 0 1-.47 0c-3.56-.78-10.3-4.89-10.3-14.82a15 15 0 0 1 7.77-13.33 15.07 15.07 0 0 1-3.75-7.09c-.74-3.69.17-7.45 2.71-11.16 3-4.36 10-6.5 16.37-5 5.53 1.33 9.07 5.05 9.72 10.22a2.21 2.21 0 1 1-4.39.55c-.56-4.42-4.23-5.95-6.36-6.46-4.52-1.09-9.75.33-11.68 3.16s-2.52 5.29-2 7.76c.83 4.23 4.79 6.9 4.83 6.93a2.21 2.21 0 0 1-.85 4 10.29 10.29 0 0 0-7.9 10.31c0 8.89 6.75 10.48 6.82 10.49a2.22 2.22 0 0 1-.48 4.38Z" class="cls-6"/><path d="M181.65 175.87a10.76 10.76 0 0 1-1.49-.1 9.37 9.37 0 0 1-8.29-7.91c-.77-4.41 1.15-8.88 4.57-10.63a8.15 8.15 0 0 1 6.63-.74 7.42 7.42 0 0 1 4.07 3.87 2.21 2.21 0 0 1-4.07 1.74 3 3 0 0 0-1.55-1.45 4 4 0 0 0-3.07.53c-1.67.86-2.65 3.45-2.22 5.91a4.92 4.92 0 0 0 4.49 4.29 9.64 9.64 0 0 0 7.69-3c3.76-3.52 5.87-9.29 5.52-15a10.38 10.38 0 0 0-6.6-9.28c-3.48-1.42-7.51-1.07-9.6.82a6.71 6.71 0 0 0-2.15 6.17 2.21 2.21 0 0 1-3.64 2.16c-.18-.15-4.53-3.92-9.7-1.14-2.53 1.36-4.9 5.8-4.32 10.59a2.22 2.22 0 0 1-4.4.53c-.74-6.13 2.1-12.59 6.62-15a12.38 12.38 0 0 1 11.14-.48 11 11 0 0 1 3.48-6.1c3.39-3.06 9.11-3.72 14.24-1.64a14.67 14.67 0 0 1 9.35 13.11 23.56 23.56 0 0 1-6.9 18.56 14.41 14.41 0 0 1-9.8 4.19ZM194.73 223.44a2.38 2.38 0 0 1-.58-.08 2.21 2.21 0 0 1-1.55-2.72c.54-2 1.59-7.91-.12-10.81a2.87 2.87 0 0 0-1.89-1.43c-2.17-.55-3.8-.26-4.85.84a5.56 5.56 0 0 0-1.21 4.7 2.22 2.22 0 0 1-4.2 1.41c-.19-.5-2-4.93-6.43-4.22a4.55 4.55 0 0 0-3.83 3.84c-.29 1.62.22 3.15 1.23 3.72a2.21 2.21 0 1 1-2.17 3.86c-2.67-1.5-4-4.86-3.43-8.36a8.89 8.89 0 0 1 7.5-7.43 9.39 9.39 0 0 1 7.64 2 8.66 8.66 0 0 1 1.69-2.58c1.53-1.61 4.36-3.28 9.14-2.09a7.37 7.37 0 0 1 4.64 3.49c2.94 5 .81 13.29.56 14.21a2.22 2.22 0 0 1-2.14 1.65ZM196.18 203a2.21 2.21 0 0 1-2.2-2.22c0-6.07.05-11.79-1.52-13.37a2 2 0 0 0-1.53-.49 2.76 2.76 0 0 0-3 2.92 2.21 2.21 0 0 1-2.21 2.21 2.21 2.21 0 0 1-2.22-2.21 7.2 7.2 0 0 1 7.48-7.35 6.31 6.31 0 0 1 4.67 1.8c2.87 2.88 2.84 8.59 2.81 16.5a2.23 2.23 0 0 1-2.28 2.21ZM219.22 235.53q-.89 0-1.8-.09c-5.21-.5-10.1-3.07-12.73-6.72-5.39-7.45-5-16.83-4.92-17.93V157.5a2.22 2.22 0 1 1 4.43 0V211c0 .09-.56 8.68 4.08 15.09 1.88 2.61 5.64 4.53 9.57 4.91a11.42 11.42 0 0 0 9.07-2.79 2.22 2.22 0 0 1 2.28-.46c.31.11 7.74 2.72 13.65-2.34 4.19-3.6 5.75-8.18 5.05-14.85a10.7 10.7 0 0 0-4.15-7 10.15 10.15 0 0 0-7.34-2.43 2.19 2.19 0 0 1-1.84-.67 2.22 2.22 0 0 1-.6-1.87c.22-1.44.35-5.68-1.58-7.95a5.25 5.25 0 0 0-4.18-1.69h-.16c-3.88 0-5.58 1.95-5.67 6.49a2.22 2.22 0 1 1-4.43-.09c.2-9.54 6.53-10.88 10.33-10.83a9.53 9.53 0 0 1 7.5 3.27c2.29 2.7 2.73 6.45 2.73 8.92a15.44 15.44 0 0 1 8 3.39 15.19 15.19 0 0 1 5.78 10c.84 8-1.31 14.16-6.58 18.68-6.32 5.42-13.81 4.28-16.77 3.52a15.62 15.62 0 0 1-9.72 3.23Z" class="cls-6"/><path d="M250.1 212.57a2.22 2.22 0 0 1-.49-4.38c.32-.07 6.83-1.75 6.83-10.49a10.29 10.29 0 0 0-7.9-10.31 2.21 2.21 0 0 1-.84-4s4-2.69 4.83-6.92c.48-2.47-.2-5.08-2-7.76s-7.17-4.25-11.68-3.16c-2.14.51-5.8 2-6.36 6.46a2.22 2.22 0 0 1-4.4-.55c.66-5.17 4.2-8.89 9.72-10.22 6.36-1.53 13.4.61 16.38 5 2.53 3.71 3.44 7.47 2.71 11.16a15.07 15.07 0 0 1-3.75 7.09 15 15 0 0 1 7.75 13.28c0 9.93-6.73 14-10.29 14.82a2.61 2.61 0 0 1-.51-.02Z" class="cls-6"/><path d="M216.47 175.87a14.38 14.38 0 0 1-9.79-4.23 23.5 23.5 0 0 1-6.9-18.56 14.64 14.64 0 0 1 9.35-13.08c5.13-2.08 10.85-1.43 14.23 1.64a10.9 10.9 0 0 1 3.48 6.1 12.38 12.38 0 0 1 11.14.48c4.52 2.43 7.37 8.89 6.62 15a2.21 2.21 0 0 1-4.39-.53c.58-4.79-1.8-9.23-4.33-10.59-5.23-2.82-9.65 1.1-9.69 1.14a2.21 2.21 0 0 1-3.64-2.16 6.78 6.78 0 0 0-2.16-6.17c-2.08-1.89-6.12-2.24-9.59-.82a10.38 10.38 0 0 0-6.6 9.28c-.36 5.76 1.75 11.53 5.51 15 2.39 2.24 5.12 3.29 7.7 3a4.92 4.92 0 0 0 4.48-4.29c.43-2.46-.54-5.05-2.22-5.91a4 4 0 0 0-3.07-.53 3 3 0 0 0-1.55 1.45 2.19 2.19 0 0 1-2.89 1.17 2.23 2.23 0 0 1-1.18-2.91 7.47 7.47 0 0 1 4.07-3.87 8.17 8.17 0 0 1 6.64.74c3.42 1.75 5.34 6.22 4.57 10.63a9.37 9.37 0 0 1-8.3 7.91 10.56 10.56 0 0 1-1.49.11ZM203.39 223.44a2.22 2.22 0 0 1-2.14-1.64c-.25-.92-2.37-9.19.56-14.21a7.39 7.39 0 0 1 4.65-3.49c4.77-1.2 7.61.48 9.14 2.09a9.06 9.06 0 0 1 1.69 2.58 9.38 9.38 0 0 1 7.63-2 8.89 8.89 0 0 1 7.5 7.43c.62 3.5-.75 6.86-3.43 8.36a2.21 2.21 0 0 1-2.17-3.86c1-.57 1.53-2.1 1.24-3.72a4.58 4.58 0 0 0-3.84-3.84c-4.42-.7-6.23 3.72-6.43 4.23a2.21 2.21 0 0 1-4.19-1.42 5.63 5.63 0 0 0-1.21-4.7c-1-1.1-2.68-1.39-4.86-.84a2.87 2.87 0 0 0-1.89 1.43c-1.7 2.9-.62 8.93-.11 10.81a2.22 2.22 0 0 1-1.56 2.72 2.32 2.32 0 0 1-.58.07ZM201.94 203a2.2 2.2 0 0 1-2.21-2.21c0-7.91-.06-13.62 2.8-16.5a6.31 6.31 0 0 1 4.67-1.8 7.2 7.2 0 0 1 7.48 7.35 2.22 2.22 0 0 1-4.43 0 2.78 2.78 0 0 0-3.05-2.94 2 2 0 0 0-1.53.49c-1.56 1.58-1.54 7.3-1.51 13.37A2.22 2.22 0 0 1 202 203Z" class="cls-6"/><path d="M248.57 187.23a2 2 0 0 1-.78-3.74s4.05-2.73 4.9-7c.49-2.51-.2-5.16-2.06-7.89s-7.28-4.32-11.85-3.22c-2.18.53-5.91 2.08-6.49 6.6a2.05 2.05 0 1 1-4.07-.51c.65-5.09 4.15-8.77 9.6-10.08a18.22 18.22 0 0 1 2.63-.42c-.09-4.15-2.23-7.77-4.49-9-5.27-2.84-9.7 1-9.89 1.17a2.06 2.06 0 0 1-3.37-2 6.93 6.93 0 0 0-2.2-6.34c-2.13-1.92-6.24-2.28-9.77-.84a10.5 10.5 0 0 0-6.69 9.42 19.23 19.23 0 0 0 5.56 15.18c2.42 2.27 5.2 3.34 7.83 3a5.07 5.07 0 0 0 4.62-4.42c.44-2.52-.57-5.2-2.31-6.09a4.11 4.11 0 0 0-3.22-.53 3.18 3.18 0 0 0-1.6 1.51 2.06 2.06 0 0 1-3.79-1.59 7.29 7.29 0 0 1 4-3.77 8 8 0 0 1 6.5.73c3.36 1.72 5.25 6.11 4.49 10.45a9.22 9.22 0 0 1-8.16 7.78 12.08 12.08 0 0 1-1.47.09 14.24 14.24 0 0 1-9.68-4.18 20.54 20.54 0 0 1-2.75-3.2v15.05a6.7 6.7 0 0 1 3.16-.73 7 7 0 0 1 7.32 7.19 2.06 2.06 0 0 1-4.11 0 2.92 2.92 0 0 0-3.21-3.09 2.08 2.08 0 0 0-1.64.54c-1.05 1.05-1.41 3.85-1.52 7.35v10.75a7.09 7.09 0 0 1 2.46-1.13c4.7-1.18 7.48.46 9 2a8.73 8.73 0 0 1 1.74 2.74 9.22 9.22 0 0 1 7.68-2.12 8.73 8.73 0 0 1 7.36 7.3c.61 3.43-.73 6.72-3.35 8.19a2.05 2.05 0 0 1-2-3.58c1.08-.6 1.62-2.2 1.32-3.89a4.76 4.76 0 0 0-4-4c-4.7-.75-6.53 4.12-6.6 4.32a2.06 2.06 0 0 1-3.9-1.3 5.67 5.67 0 0 0-1.24-4.86c-1.1-1.15-2.78-1.45-5-.89a3 3 0 0 0-2 1.51c-1.71 2.91-.68 8.85-.15 10.84a20.24 20.24 0 0 0 2.79 5.63c1.92 2.64 5.72 4.59 9.69 5a11.56 11.56 0 0 0 9.2-2.83 2 2 0 0 1 2.11-.43c.31.11 7.83 2.75 13.81-2.37 4.19-3.59 5.81-8.35 5.11-15a10.9 10.9 0 0 0-4.2-7.13 10.39 10.39 0 0 0-7.49-2.4 2.06 2.06 0 0 1-2.27-2.35c.22-1.46.35-5.77-1.62-8.09a5.4 5.4 0 0 0-4.29-1.74c-4.13-.06-5.9 1.93-6 6.65a2.06 2.06 0 0 1-4.11-.09c.2-9.4 6.46-10.73 10.16-10.66a9.39 9.39 0 0 1 7.39 3.2c2.3 2.73 2.71 6.53 2.69 9a15.08 15.08 0 0 1 8.07 3.37 15.53 15.53 0 0 1 5.16 7.3c2.06-1.18 5-3.91 5-9.84a10.46 10.46 0 0 0-8.01-10.52ZM185.9 163.11a2.05 2.05 0 0 1-2.68-1.08 3.21 3.21 0 0 0-1.64-1.54 4.2 4.2 0 0 0-3.2.54c-1.74.89-2.75 3.57-2.31 6.09a5.07 5.07 0 0 0 4.63 4.42c2.62.33 5.4-.74 7.83-3a19.29 19.29 0 0 0 5.56-15.18 10.5 10.5 0 0 0-6.7-9.42c-3.53-1.44-7.64-1.08-9.76.84a7 7 0 0 0-2.21 6.36 2 2 0 0 1-3.37 2c-.18-.15-4.61-4-9.88-1.16-2.27 1.22-4.41 4.84-4.5 9a18.35 18.35 0 0 1 2.64.42c5.45 1.31 8.95 5 9.59 10.08a2.05 2.05 0 0 1-4.07.51c-.58-4.52-4.31-6.07-6.48-6.6-4.58-1.1-9.89.35-11.86 3.22s-2.55 5.38-2.05 7.89c.84 4.3 4.86 7 4.9 7a2.05 2.05 0 0 1-.78 3.74 10.45 10.45 0 0 0-8 10.47c0 5.93 3 8.66 5 9.84a15.6 15.6 0 0 1 5.16-7.3 15.12 15.12 0 0 1 8.07-3.37c0-2.44.39-6.24 2.7-9a9.36 9.36 0 0 1 7.38-3.2c3.7-.07 10 1.26 10.16 10.66a2.05 2.05 0 0 1-2 2.09 2 2 0 0 1-2.09-2c-.1-4.72-1.91-6.71-6-6.65a5.41 5.41 0 0 0-4.3 1.74c-2 2.32-1.84 6.63-1.62 8.09a2.06 2.06 0 0 1-2.26 2.35 10.36 10.36 0 0 0-7.46 2.46 10.91 10.91 0 0 0-4.21 7.13c-.7 6.64.93 11.4 5.11 15 6 5.17 13.73 2.4 13.81 2.37a2.06 2.06 0 0 1 2.12.43 11.58 11.58 0 0 0 9.19 2.83c4-.38 7.78-2.33 9.69-5a20.56 20.56 0 0 0 2.8-5.63c.55-2.12 1.55-7.94-.16-10.84a3 3 0 0 0-2-1.51c-2.23-.56-3.92-.26-5 .89a5.71 5.71 0 0 0-1.25 4.86 2.05 2.05 0 0 1-3.89 1.3c-.08-.19-2-5.06-6.6-4.32a4.73 4.73 0 0 0-4 4c-.31 1.69.24 3.29 1.31 3.89a2.05 2.05 0 1 1-2 3.58c-2.61-1.47-4-4.76-3.35-8.19a8.74 8.74 0 0 1 7.37-7.3 9.28 9.28 0 0 1 7.66 2.09 8.73 8.73 0 0 1 1.74-2.74c1.51-1.58 4.29-3.22 9-2a7 7 0 0 1 2.45 1.13v-10.75c-.11-3.5-.47-6.3-1.51-7.35a2.11 2.11 0 0 0-1.65-.54 2.94 2.94 0 0 0-3.21 3.08 2.05 2.05 0 0 1-2.05 2 2.05 2.05 0 0 1-2.06-2 7 7 0 0 1 7.32-7.19 6.67 6.67 0 0 1 3.16.73v-15.05a20 20 0 0 1-2.75 3.2 14.2 14.2 0 0 1-9.68 4.18 12.08 12.08 0 0 1-1.47-.09 9.21 9.21 0 0 1-8.15-7.78c-.76-4.34 1.12-8.73 4.48-10.45a8 8 0 0 1 6.5-.73 7.24 7.24 0 0 1 4 3.77 2.06 2.06 0 0 1-1.12 2.69Z" class="cls-2"/></svg>