<svg xmlns="http://www.w3.org/2000/svg" id="Capa_1" data-name="Capa 1" viewBox="0 0 400 400"><defs><style>.cls-2{fill:#f5a118}</style></defs><path d="M253.11 217.46c5.53 4.94 8.48 11 6.24 18.1-1.38 4.38.1 6.32 3.11 8.87 28 23.72 55.76 47.61 83.66 71.39 5 4.22 8.68 9.18 10.23 15.54 1.89 7.7 1.11 15-4.94 20.69s-13.34 6.13-20.94 4c-5.86-1.64-10.5-5.17-14.44-9.78q-36.48-42.78-73-85.55c-1.75-2.06-3.09-2.73-5.92-1.74-6.2 2.18-12.05.88-17.1-3.48-.85-.74-1.66-1.54-2.58-2.4-29.61 17.66-61.05 22.26-94.09 12.35-26.72-8-47.64-24.21-62.72-47.66-30.07-46.71-21.47-108.21 20.28-146.2C121.27 34.85 183.68 33 227.49 67.47c43.37 34.15 57.68 97.41 25.62 149.99Zm-3.88-61.06a92.57 92.57 0 0 0-93-92.38c-50.92.23-92.27 41.81-92.15 92.66a92.59 92.59 0 1 0 185.17-.28Z"/><circle cx="156.43" cy="156.6" r="98.21" fill="#ffdf39"/><path d="M156.75 74.5a78.86 78.86 0 0 1 28.87 5.33c3.7 1.4 5.23 4 4.16 7.14s-4 4.21-7.95 2.83c-27.43-9.55-52-4.68-73.51 14.85-3 2.75-6.23 3-8.46.61s-1.84-5.53 1.23-8.42q23.43-22.14 55.66-22.34ZM236.82 150.24c0 1.55.12 3.11 0 4.65a5.24 5.24 0 0 1-5.33 5 5 5 0 0 1-5.18-5.08 77.77 77.77 0 0 0-5.12-26.37 5.24 5.24 0 0 1 2.94-7c2.75-1.07 5.51.07 6.82 3.16a78 78 0 0 1 5.87 25.64Z" class="cls-2"/></svg>