<svg xmlns="http://www.w3.org/2000/svg" id="Capa_1" data-name="Capa 1" viewBox="0 0 400 400"><defs><style>.cls-1{fill:#ffdf39}</style></defs><path d="M85 175.24s4.2-21.11 4.2-22.36-4.2-30.64-4.2-30.64l13.12-33 19.34-11.55 15.81-22.56 28.86-13.64 28.34-2.63h35.13l24.55 2.1 10.09 11s7.34 5.75 8.92 9.17 5.24 11.82 5.24 11.82l10.1 6.82 23.93 18.37 4.28 15V191l-4.28 9s-4.12 12-5.17 13.55-11.41 8.62-11.41 8.62l-22.69 22.43-9 11.21s-17.87 9.68-18.33 10.21-33.52 7.34-37.19 7.34-42.12-7.34-46.51-7.87-21.19-10.9-21.19-10.9l-16.24-27.16-12.39-1.29L91.3 200Z" class="cls-1"/><path d="m228.64 266.35 37.99 87.96 25.22-34.46 42.88 12.49-42.88-110.18h-10.17l-10.02 16.62-6.65 5.82-4.87 11.21 3.86 3.96-17.64 1.53-17.72 5.05zM104.49 222.17l16.21 5.26 16.22 27.16 32.83 12.16-36.07 87.56-25.37-35.67s-44.76 16.45-43.14 13.7 39.32-110.17 39.32-110.17Z" class="cls-1"/><path d="M342.19 330.88c-4.29-11.2-8.5-22.42-12.75-33.64l-2.25-5.94-14-36.92c-3.74-9.92-7.48-19.83-11.33-29.71-.89-2.29-.5-3.64 1.21-5.31a54.4 54.4 0 0 0 14.95-26c3.29-13 2-25.62-2.22-38.15a8.21 8.21 0 0 1-.24-4c1-5.18 2.08-10.33 3.09-15.5 1.21-3.92 3.07-13.5-1.72-27-5.65-16.86-17.35-28.31-33.2-36.09a10.11 10.11 0 0 1-3.56-3.53c-2.56-3.85-5-7.77-7.47-11.69s-4.59-12.59-25.78-20.48a60 60 0 0 0-6.82-2.19h-.07a58.53 58.53 0 0 0-26.12-.55c-4.81 1-9.53 3.35-14.28 3.32s-9.45-2.59-14.27-3.46a59 59 0 0 0-31.86 2.69l-.17.07-.62.24a56.84 56.84 0 0 0-21.55 14.93 5.3 5.3 0 0 0-.86 1c-3.42 5.18-6.91 10.32-10.09 15.64a10 10 0 0 1-4.33 4.35C104.24 78.61 95 86.28 88.8 96.36s-.32.51-.84 1.43A58.17 58.17 0 0 0 83 108.86c-2.49 7.24-4.38 16.73-2.14 26a55.78 55.78 0 0 0 1.79 9.79c1.71 5.68 1.47 10.67 0 16.37-5.89 22.19-1.76 42.18 14.8 58.85 1.45 1.46 1.5 2.66.81 4.42-2.87 7.36-5.64 14.76-8.43 22.15q-8.13 21.49-16.26 43-8 21.26-16.08 42.51c-1.29 3.44-.28 6.61 2.79 7.7a8.56 8.56 0 0 0 5.32-.06q18.32-6.33 36.49-13c2.29-.85 3.29-.4 4.3 1.71 1.17 2.44 2.49 4.81 3.78 7.2l.78 1.46c.43.81.85 1.63 1.25 2.46a5.62 5.62 0 0 0 .51.85l8.83 16.58q1.32 2.63 2.76 5.18l.42.77c.29.51.57 1 .87 1.53a5.52 5.52 0 0 0 9.52.11c.3-.53.57-1.08.82-1.64v-.09c.91-2 1.57-4.13 2.4-6.18h-.06l6.17-16.28c4.84-12.78 9.64-25.58 14.57-38.34 3.52-9.14 7.21-18.21 10.87-27.3 14.34 3.14 39.29 6.79 61.1.87.23.62.43 1.26.67 1.88q12.59 33.39 25.22 66.76c.17.44.36.88.54 1.32l5.06 13.45a40.69 40.69 0 0 0 2.29 5.45 5.52 5.52 0 0 0 9.2.61 38.22 38.22 0 0 0 2.48-4.15l.18-.33 4.33-8.16a3.77 3.77 0 0 0 .71-1.35l7.2-13.54c1.63-3 3.24-6 4.76-9.08 1-2.09 2-2.54 4.3-1.7 11.94 4.42 24 8.62 35.93 13 2.71 1 5.26 1.36 7.51-.88s1.89-5.1.83-7.88ZM156 277.55q-11.55 30.51-23.11 61h-.19l-3.35 8.59-2.12-4.05c-.39-.82-.78-1.63-1.2-2.43l-3.7-6.94-.68-1.3q-4.09-7.69-8.2-15.38c-2.21-4.14-4.51-5.06-8.94-3.49q-14.06 5-28.09 10c-1 .34-1.92.61-3.81 1.21 5-13.31 9.77-26.06 14.6-39l3.3-8.66h.58c.09-.77.19-1.54.29-2.3l3.55-9.33 13.82-36.45c3.37 1.69 6.37 3.13 9.3 4.73a5 5 0 0 1 1.48 1.92c2.35 4 4.75 8 6.91 12.08a5.27 5.27 0 0 1 .37 3.79c-4.48 12.12-9.1 24.18-13.68 36.25-.36 1-.73 1.91-1 2.89-1 3.23.34 6.33 3.14 7.45a5.63 5.63 0 0 0 7.51-3.46c2.87-7.25 5.56-14.58 8.33-21.87 1.71-4.5 3.43-9 5-13.18l22.09 11.78c-.66 1.7-1.41 3.94-2.2 6.15Zm48.76-20.4a12.07 12.07 0 0 0-9.33 0c-15.66 5.89-31.12 6.1-45.83-2.88-9.8-6-16.2-14.92-20.51-25.39a8.77 8.77 0 0 0-5.08-5.11c-11.15-4.72-20.56-11.55-26.53-22.42-7.05-12.85-7.59-26.36-3-39.93 2-6 2.39-11.12 0-17.06-3.8-9.44-3.74-19.57-2.07-29.38.78-4.57 4-8.85 6.51-13 5.72-9.25 14.08-15.49 24-19.6a11.16 11.16 0 0 0 6.62-6.55 51 51 0 0 1 15.26-21c6.33-4.46 18.87-8.77 21.85-9.76 10-1.51 19.67 0 29.14 3.67a10.7 10.7 0 0 0 8.33 0 57.8 57.8 0 0 1 26.83-4c3.49.52 21.79 3.9 32.76 18.94A63.7 63.7 0 0 1 271 76.91a8.46 8.46 0 0 0 4.92 4.93c12.78 5.22 22.63 13.42 28.38 25.83.47 1.42 4.94 15.21 3.77 24l-.78 3.19c-1.18 4.89-2.33 9.79-3.33 14.72a12.54 12.54 0 0 0 0 6.38c4.09 11.34 6.1 22.8 2.92 34.71-4.09 15.31-14.14 25.49-28.22 31.83a16.16 16.16 0 0 0-8.84 8.78c-6.92 15.23-18.09 25.7-35 29-10.38 2.11-20.41.6-30.11-3.13Zm119.46 66.62-28.07-10c-5.09-1.81-7.15-1-9.72 3.83l-8.8 16.54-7.13 13.08c-9.79-25.87-19.3-51-28.64-75.65l22.14-11.8c.8 2.06 1.79 4.59 2.76 7.14 3.45 9.12 6.85 18.27 10.37 27.36 1.78 4.59 6.75 5.81 9.76 2.49 1.83-2 1.8-4.34.87-6.78-4.78-12.59-9.5-25.21-14.36-37.77a4.93 4.93 0 0 1 .62-5.11c2.25-3.4 4-7.1 6.23-10.54a11.82 11.82 0 0 1 3.57-3.54c2.25-1.43 4.74-2.5 7.53-3.93 3.84 10.13 7.58 20 11.27 29.73l8.46 22.37.21.59q7.59 20 15.15 40.05c.28.74.43 1.53.77 2.76-1.33-.36-2.21-.52-3.04-.82Z"/><circle cx="201.31" cy="152.94" r="85.79" fill="#f5a219"/><path d="M217.19 62.65a94.34 94.34 0 0 0-40.1 1.3c-49.31 12.58-78.15 62.72-66 111.27s.16.68.48 1.83q1 3.76 2.37 7.5a24.32 24.32 0 0 0 1.3 3.39c.53 1.33 1.12 2.71 1.75 4.11h-.14c.22.36.44.71.65 1.07 2.68 5.7 6.24 11.67 10.76 16.11 1.13 1.6 2.26 3.18 3.43 4.75a5.73 5.73 0 0 0 10.48-3.85 7.88 7.88 0 0 0-4.1-5.45 175.47 175.47 0 0 1-9.59-15.42c-10-20-11.55-40.77-4.42-62.39 12.37-37.57 51.31-60.16 91.07-53 4.32.78 7.31-.94 7.87-4.52.53-3.35-1.73-5.98-5.81-6.7ZM269.73 93.18a90.28 90.28 0 0 0-32.59-24.26 7.1 7.1 0 0 0-3.76-.58 5.25 5.25 0 0 0-4.63 4.56c-.51 2.69.77 4.84 3.43 6.36 5.31 3 10.9 5.72 15.77 9.36s8.92 8.09 13.25 12.29c2.15 2.08 4.59 2.86 7.05 1.78 2.29-1 3.33-2.85 3.41-6.13a16.61 16.61 0 0 0-1.93-3.38ZM289.89 134.65c-1.36-6.41-3.75-12.62-6-18.8a5.39 5.39 0 0 0-7.55-3.12c-2.84 1.25-4 4.24-2.87 7.5.27.79.64 1.55.95 2.32a80.65 80.65 0 0 1-1.11 63c-.32.56-11.67 20.46-24.06 30.52-18.59 14.43-39.79 19.73-63.52 15.74a80.05 80.05 0 0 1-31.27-12.76 9.86 9.86 0 0 0-5.91-1.45c-2.25.18-3.63 2.11-4 4.45-.42 2.84 1 4.71 3.21 6.29 38.1 26.6 91.27 19.88 121.51-15.43 1.59-1.87 3.08-3.82 4.57-5.77.42-.49.88-1.09 1.41-1.82.11-.13.21-.27.32-.41.88-1.25 1.9-2.85 3.07-4.89a27.48 27.48 0 0 0 1.7-3.08c.22-.4.43-.81.65-1.24l.63-1.3c.74-1.5 1.53-3.13 2.36-4.94.55-1.19 1.09-2.39 1.56-3.6a88.34 88.34 0 0 0 4.35-51.21Z"/><path d="M243.67 154.71c0-4.29-2.37-7.32-6.29-9.12.18-.35.26-.55.38-.73a9.82 9.82 0 0 0-8.86-15.1c-3.79.19-7.61 0-11.41 0s-4.31-.76-3.38-4.47a8.61 8.61 0 0 1 .65-1.71 26.41 26.41 0 0 0 2.1-18.59 12.83 12.83 0 0 0-14.47-9.92 5.2 5.2 0 0 0-4.82 5.92c.09 1.34.18 2.68.38 4 1.1 7.42-1.6 13.26-7.42 17.75-3.89 3-7.85 5.92-11.82 8.82a3.21 3.21 0 0 1-1.71.44h-10.74c-4.75 0-7.31 2.61-7.31 7.39v39.24c0 5.08 2.67 7.7 7.8 7.68h12.08a2.62 2.62 0 0 1 1.83.81c5.88 7.65 13.91 8.5 22.8 7.37a29.16 29.16 0 0 0-1.92-3.12 2.44 2.44 0 0 0-1.54-.78c-2.82-.31-5.72-.2-8.44-.84-5.69-1.35-10.38-7.14-9.9-12.94.15-1.77 0-3.57 0-5.36s-.79-2.85-2.13-2.81-2.1 1.1-2.11 2.88v10.5h-10.8c-2.64 0-3.41-.76-3.41-3.37v-39.59c0-1.42.37-2.75 2-2.8 3.67-.13 7.35 0 11.2 0v11.68c0 1.7.78 2.68 2.07 2.71s2.19-1 2.2-2.78c0-3.07.19-6.16-.06-9.22a5.43 5.43 0 0 1 2.64-5.3c3.86-2.76 7.75-5.52 11.35-8.59 4.53-3.86 7.58-8.69 7.66-14.88 0-2.9-.21-5.8-.41-8.69-.08-1.2.17-1.91 1.53-2a8.41 8.41 0 0 1 8.45 4.6c2.66 6 1.79 11.83-.63 17.7a37.08 37.08 0 0 0-1.54 6.76 7.1 7.1 0 0 0 0 1.46c-3.82.56-6.74 2.25-8.4 5.76s-1 6.83 1 10c-8.82 4.52-7.84 15 0 18.62-1.69 2.78-2.5 5.59-1.52 8.73a10.43 10.43 0 0 0 5.91 6.43c-.29.51-.49.85-.67 1.19a9.75 9.75 0 0 0 8.48 14.56c3.52.11 7 .06 10.56 0 8-.14 12.28-8.39 8.72-14.33a16.32 16.32 0 0 1-.68-1.55 10.52 10.52 0 0 0 5.92-6.56c1-3.16-.12-5.9-1.57-8.65 3.98-1.84 6.3-4.91 6.25-9.2Zm-34.34-20.94h10.88c3.77 0 7.53-.05 11.29 0 2.23 0 3.67 1.45 4.31 4a5.74 5.74 0 0 1-1.53 5.79 4.76 4.76 0 0 1-2.84 1.18c-7.39.1-14.78.07-22.18.05-2.71 0-4.72-2.4-4.73-5.55s2.03-5.46 4.8-5.47Zm16.12 57c-3.74.17-7.49.16-11.23 0a5.52 5.52 0 0 1 .3-11h10.56a5.68 5.68 0 0 1 5.72 5.23 5.57 5.57 0 0 1-5.35 5.75Zm4-15.23q-9.65.07-19.29 0a5.49 5.49 0 1 1 .14-11H229.43a5.48 5.48 0 1 1 0 11Zm7.86-16.47a6.82 6.82 0 0 1-3.55 1.19c-9.22.09-18.45.07-27.68 0a5.61 5.61 0 0 1-5.9-5.55c0-3.09 2.53-5.44 6-5.46h13.59c4.7 0 9.4-.05 14.09 0a5.29 5.29 0 0 1 5.38 4 5 5 0 0 1-1.95 5.8Z"/></svg>