<?xml version="1.0" encoding="UTF-8" standalone="no"?><!DOCTYPE svg PUBLIC "-//W3C//DTD SVG 1.1//EN" "http://www.w3.org/Graphics/SVG/1.1/DTD/svg11.dtd"><svg width="100%" height="100%" viewBox="0 0 3724 1265" version="1.1" xmlns="http://www.w3.org/2000/svg" xmlns:xlink="http://www.w3.org/1999/xlink" xml:space="preserve" xmlns:serif="http://www.serif.com/" style="fill-rule:evenodd;clip-rule:evenodd;stroke-linejoin:round;stroke-miterlimit:2;"><g transform="matrix(263.418743,0,0,263.418743,2377.621448,1239.494069)"></g><text x="890.257px" y="1239.494px" style="font-family:'SNPro-Bold', 'SN Pro';font-weight:700;font-size:263.419px;fill:#d20012;">A<tspan x="1108.47px 1336.591px 1525.462px 1756.217px 1971.43px 2082.592px " y="1239.494px 1239.494px 1239.494px 1239.494px 1239.494px 1239.494px ">GENCIA</tspan></text><g><path d="M659.264,19.109c4.916,4.444 8.397,8.221 10.445,11.332c2.048,3.111 3.891,5.555 5.53,7.333c3.277,0 6.554,0.444 9.831,1.333c3.277,0.889 6.554,1.778 9.831,2.666c20.481,7.11 36.047,21.776 46.697,43.996c1.639,2.666 3.277,6.666 4.916,11.999c7.373,20.443 15.566,52.217 24.578,95.325c9.012,43.107 18.433,92.214 28.264,147.32c9.831,55.106 19.457,113.323 28.879,174.651c9.421,61.328 18.638,120.433 27.65,177.317c12.289,-37.33 23.963,-75.104 35.023,-113.323c11.06,-38.219 22.325,-76.882 33.794,-115.989c10.65,-38.219 21.505,-75.771 32.565,-112.656c11.06,-36.886 22.12,-71.549 33.18,-103.991c11.06,-32.441 21.915,-61.994 32.565,-88.659c10.65,-26.664 21.301,-49.329 31.951,-67.994c12.289,-21.331 26.216,-39.108 41.782,-53.328c19.662,-20.443 41.782,-31.997 66.359,-34.664c12.289,-1.778 24.782,-1.111 37.481,2c12.698,3.111 25.192,9.11 37.481,17.998c6.554,4.444 13.518,9.999 20.891,16.665c7.373,6.666 14.337,14.443 20.891,23.331c4.916,6.222 8.397,10.666 10.445,13.332c2.048,2.666 3.072,4.888 3.072,6.666c0,1.778 -1.434,3.777 -4.301,5.999c-2.867,2.222 -7.168,5.555 -12.903,9.999c-9.012,7.11 -19.662,23.109 -31.951,47.996c-12.289,24.887 -25.806,55.328 -40.553,91.325c-14.747,35.997 -30.107,76.437 -46.083,121.322c-15.975,44.885 -32.156,91.325 -48.541,139.321c-18.024,50.662 -36.252,101.324 -54.685,151.986c-18.433,50.662 -36.457,97.991 -54.071,141.987c-17.614,43.996 -35.228,83.104 -52.842,117.323c-17.614,34.219 -34.204,60.661 -49.769,79.326c-1.639,7.999 -5.12,14.665 -10.445,19.998c-5.325,5.333 -11.265,9.332 -17.819,11.999c-9.012,3.555 -19.662,5.333 -31.951,5.333c-11.47,-0.889 -22.529,-3.555 -33.18,-7.999c-18.843,-7.11 -36.252,-19.554 -52.227,-37.33c-15.975,-17.776 -25.192,-41.33 -27.65,-70.66c-2.458,-27.553 -4.711,-57.55 -6.759,-89.992c-2.048,-32.441 -3.891,-66.438 -5.53,-101.991c-3.277,-51.551 -6.349,-104.657 -9.217,-159.319c-2.867,-54.662 -7.168,-108.212 -12.903,-160.652c-13.927,38.219 -29.288,77.771 -46.083,118.656c-16.795,40.885 -33.794,81.77 -50.998,122.655c-18.843,43.552 -36.866,86.214 -54.071,127.988c-17.204,41.774 -123.303,256.761 -340.249,306.882c-26.014,6.01 -222.388,-104.608 -196.185,-113.306c277.783,-92.211 409.45,-371.338 445.497,-438.887c20.481,-39.108 40.963,-78.437 61.444,-117.989c20.481,-39.552 39.119,-77.548 55.914,-113.99c16.795,-36.441 30.312,-70.438 40.553,-101.991c10.241,-31.553 16.18,-58.884 17.819,-81.993c-1.639,-1.778 -2.458,-3.111 -2.458,-4l-18.433,4c-23.758,9.777 -50.794,27.331 -81.106,52.662c-30.312,25.331 -59.805,54.439 -88.479,87.325c-29.493,32.886 -55.709,67.105 -78.648,102.657c-22.939,35.552 -38.914,68.438 -47.926,98.658c-9.012,23.998 -10.65,43.996 -4.916,59.995l11.06,30.664l-30.722,2.666c-10.65,1.778 -20.891,1.333 -30.722,-1.333c-9.831,-2.666 -19.252,-6.222 -28.264,-10.666c-20.481,-9.777 -37.276,-24.442 -50.384,-43.996c-13.108,-21.331 -20.891,-45.329 -23.349,-71.993c-0.819,-15.11 0.205,-30.664 3.072,-46.662c2.867,-15.999 8.397,-32.886 16.59,-50.662c8.193,-19.554 20.072,-40.219 35.637,-61.994c15.566,-21.776 33.18,-43.329 52.842,-64.661c19.662,-21.331 41.167,-41.996 64.516,-61.994c23.349,-19.998 47.312,-37.997 71.889,-53.995c22.939,-15.11 45.468,-28.22 67.588,-39.33c22.12,-11.11 43.42,-19.332 63.902,-24.664c10.65,-2.666 22.529,-4.888 35.637,-6.666c13.108,-1.778 25.806,-2.222 38.095,-1.333c12.289,0.889 23.758,2.666 34.409,5.333c10.65,2.666 19.252,7.11 25.806,13.332Z" style="fill:#d20012;fill-rule:nonzero;"/><path d="M1674.316,549.728c4.916,-7.999 10.445,-12.888 16.59,-14.665c6.144,-1.778 11.674,-1.111 16.59,2c4.916,3.111 8.397,7.999 10.445,14.665c2.048,6.666 0.614,13.999 -4.301,21.998c-18.024,33.775 -40.758,70.216 -68.203,109.323c-27.445,39.108 -57.757,75.771 -90.937,109.99c-33.18,34.219 -68.817,63.328 -106.912,87.325c-38.095,23.998 -76.395,37.774 -114.9,41.33c-27.035,2.666 -52.842,-0.444 -77.419,-9.332c-36.866,-12.443 -63.287,-33.552 -79.262,-63.328c-15.975,-29.775 -23.963,-63.772 -23.963,-101.991c0,-20.443 2.048,-41.33 6.144,-62.661c4.096,-21.331 9.421,-42.663 15.975,-63.994c14.747,-45.329 34.409,-87.548 58.986,-126.655c18.024,-29.331 38.095,-56.661 60.215,-81.993c22.12,-25.331 45.264,-46.662 69.431,-63.994c24.168,-17.332 48.745,-29.553 73.733,-36.663c24.987,-7.11 49.36,-7.11 73.118,0c28.674,8.888 51.613,25.331 68.817,49.329c18.843,28.442 25.806,62.217 20.891,101.324c-2.458,17.776 -7.168,36.441 -14.132,55.995c-6.964,19.554 -16.999,39.108 -30.107,58.661c-20.481,32.886 -48.336,64.661 -83.564,95.325c-35.228,30.664 -78.648,57.995 -130.261,81.993c6.554,4.444 15.975,7.555 28.264,9.332c27.855,3.555 57.143,-0.889 87.865,-13.332c30.722,-12.443 59.805,-29.331 87.25,-50.662c27.445,-21.331 52.637,-45.329 75.576,-71.993c22.939,-26.664 40.963,-52.44 54.071,-77.326Zm-358.832,153.319c33.589,-25.775 62.877,-55.55 87.865,-89.325c24.987,-33.775 45.673,-67.549 62.058,-101.324c18.843,-39.108 30.722,-73.327 35.637,-102.657c4.096,-25.775 3.277,-41.774 -2.458,-47.996c0,-0.889 -0.41,-1.333 -1.229,-1.333c-6.554,-1.778 -14.951,1.333 -25.192,9.332c-10.241,7.999 -21.505,19.332 -33.794,33.997c-12.289,14.665 -24.782,32.219 -37.481,52.662c-12.698,20.443 -24.373,41.774 -35.023,63.994c-17.204,35.552 -31.132,70.66 -41.782,105.324c-8.193,30.219 -11.06,55.995 -8.602,77.326Z" style="fill:#d20012;fill-rule:nonzero;"/><path d="M1843.901,701.714c16.385,-7.999 33.589,-22.22 51.613,-42.663c18.024,-20.443 36.457,-47.996 55.299,-82.659l12.289,-26.664c4.916,-9.777 10.65,-15.554 17.204,-17.332c6.554,-1.778 12.289,-1.111 17.204,2c4.916,3.111 8.397,8.221 10.445,15.332c2.048,7.11 0.614,14.665 -4.301,22.665c-9.012,18.665 -21.915,43.996 -38.71,75.993c-16.795,31.997 -35.842,64.439 -57.143,97.324c-12.289,18.665 -25.602,36.441 -39.938,53.328c-14.337,16.887 -28.879,31.997 -43.625,45.329c-14.747,13.332 -29.903,23.776 -45.468,31.33c-15.566,7.555 -31.132,11.332 -46.697,11.332c-13.108,0.889 -24.578,-0.444 -34.409,-4c-27.855,-7.999 -48.336,-24.887 -61.444,-50.662c-11.47,-23.109 -18.024,-50.218 -19.662,-81.326c0,-25.775 2.867,-49.329 8.602,-70.66c6.554,-28.442 16.385,-57.773 29.493,-87.992c13.108,-30.219 27.035,-59.55 41.782,-87.992c19.662,-37.33 39.938,-71.549 60.829,-102.657c20.891,-31.108 38.3,-54.662 52.227,-70.66c12.289,-14.221 26.626,-23.331 43.011,-27.331c16.385,-4 31.541,-4.222 45.468,-0.667c10.65,2.666 18.843,6.666 24.578,11.999c9.012,7.11 14.747,15.554 17.204,25.331c6.554,18.665 1.229,38.219 -15.975,58.661c-14.747,16.887 -29.493,37.108 -44.24,60.661c-14.747,23.553 -27.855,47.773 -39.324,72.66c-13.927,26.664 -24.987,51.773 -33.18,75.326c-8.193,23.553 -12.698,41.552 -13.518,53.995c-0.819,15.999 1.639,28.886 7.373,38.663c4.916,5.333 9.831,7.999 14.747,7.999c7.373,0.889 16.795,-1.333 28.264,-6.666Zm162.212,-621.277c21.301,0 38.095,7.555 50.384,22.665c6.554,7.11 11.674,15.332 15.361,24.664c3.687,9.332 5.53,19.332 5.53,29.997c0,9.777 -4.506,19.109 -13.518,27.997c-9.012,8.888 -19.048,17.776 -30.107,26.664c-11.06,8.888 -21.505,17.998 -31.336,27.331c-9.831,9.332 -15.975,18.443 -18.433,27.331c-2.458,7.11 -8.193,9.777 -17.204,7.999c-22.12,-6.222 -36.252,-19.998 -42.396,-41.33c-6.144,-21.331 -6.554,-43.329 -1.229,-65.994c5.325,-22.665 15.361,-42.885 30.107,-60.661c14.747,-17.776 32.36,-26.664 52.842,-26.664Z" style="fill:#d20012;fill-rule:nonzero;"/></g><g><path d="M2758.596,956.052c-4.901,43.722 -13.947,125.411 -79.882,218.714c-83.849,118.651 -369.783,99.054 -371.234,60.102c-0.447,-12 -5.367,-144.043 2.559,-150.082c13.982,-10.653 244.816,93.989 246.852,-167.175c0.381,-48.828 1.27,-87.017 -14.321,-63.739c-19.576,29.227 -81.721,141.326 -253.637,109.356c-218.595,-40.651 -267.291,-398.357 -143.751,-587.292c79.656,-121.821 287.584,-158.938 390.183,-1.688c2.798,4.288 10.138,24.169 18.481,18.991c8.995,-5.582 -5.095,-103.081 9.195,-106.5c0.481,-0.115 189.251,-1.67 192.801,0.94c5.645,4.15 3.586,6.288 3.922,454.074c0.129,171.96 -0.643,197.163 -1.167,214.299Zm-206.017,-291.857c1.738,-17.925 15.693,-84.101 -22.117,-159.153c-3.166,-6.284 -25.314,-50.247 -62.155,-62.234c-120.587,-39.234 -187.475,68.702 -182.093,183.059c10.671,226.734 189.471,207.254 236.676,123.516c22.326,-39.604 18.411,-41.064 29.689,-85.188Z" style="fill:#d20012;"/><path d="M2792.809,664.646c-16.483,-248.019 132.981,-422.05 388.101,-387.164c265.865,36.356 327.698,349.155 221.221,553.445c-118.737,227.811 -585.067,227.875 -609.323,-166.281Zm327.886,156.838c51.929,-3.711 140.321,-20.491 130.324,-229.94c-5.785,-121.206 -90.611,-180.633 -176.834,-148.3c-120.794,45.297 -116.673,364.135 29.149,377.254c5.773,0.519 11.588,0.466 17.36,0.985Z" style="fill:#d20012;"/><path d="M3583.386,979.559c-132.771,-44.702 -79.528,-204.691 5.035,-215.102c190.787,-23.488 170.875,252.21 -5.035,215.102Z" style="fill:#d20012;"/></g></svg>